<svg xmlns="http://www.w3.org/2000/svg" viewBox="0 0 260 520" role="img" aria-label="Eiffel Tower silhouette">
    <defs>
        <linearGradient id="towerSteel" x1="0" x2="0" y1="0" y2="1">
            <stop offset="0" stop-color="#243238"/>
            <stop offset="0.55" stop-color="#162126"/>
            <stop offset="1" stop-color="#0d171a"/>
        </linearGradient>
        <linearGradient id="towerGlow" x1="0" x2="0" y1="0" y2="1">
            <stop offset="0" stop-color="#ffe38a" stop-opacity="0.9"/>
            <stop offset="1" stop-color="#f2846b" stop-opacity="0.2"/>
        </linearGradient>
        <filter id="softGlow" x="-40%" y="-20%" width="180%" height="140%">
            <feGaussianBlur stdDeviation="7" result="blur"/>
            <feMerge>
                <feMergeNode in="blur"/>
                <feMergeNode in="SourceGraphic"/>
            </feMerge>
        </filter>
    </defs>
    <g fill="none" stroke-linecap="round" stroke-linejoin="round">
        <path d="M130 18 L96 474" stroke="url(#towerSteel)" stroke-width="14"/>
        <path d="M130 18 L164 474" stroke="url(#towerSteel)" stroke-width="14"/>
        <path d="M83 502 C105 450 115 384 122 318 C126 264 128 192 130 18" stroke="url(#towerSteel)" stroke-width="12"/>
        <path d="M177 502 C155 450 145 384 138 318 C134 264 132 192 130 18" stroke="url(#towerSteel)" stroke-width="12"/>
        <path d="M113 101 H147" stroke="url(#towerSteel)" stroke-width="10"/>
        <path d="M101 176 H159" stroke="url(#towerSteel)" stroke-width="12"/>
        <path d="M89 282 H171" stroke="url(#towerSteel)" stroke-width="14"/>
        <path d="M69 402 H191" stroke="url(#towerSteel)" stroke-width="16"/>
        <path d="M48 502 H212" stroke="url(#towerSteel)" stroke-width="18"/>
        <path d="M103 176 L156 282 M157 176 L104 282 M86 282 L188 402 M174 282 L72 402 M70 402 L108 502 M190 402 L152 502" stroke="#314249" stroke-width="8" opacity="0.95"/>
        <path d="M122 48 H138 M116 77 H144 M109 132 H151 M100 222 H160 M86 338 H174 M61 455 H199" stroke="url(#towerGlow)" stroke-width="4" filter="url(#softGlow)" opacity="0.92"/>
    </g>
    <g fill="#ffe38a" opacity="0.86" filter="url(#softGlow)">
        <circle cx="130" cy="20" r="5"/>
        <circle cx="116" cy="103" r="3"/>
        <circle cx="145" cy="104" r="3"/>
        <circle cx="102" cy="179" r="3"/>
        <circle cx="159" cy="179" r="3"/>
        <circle cx="89" cy="283" r="3"/>
        <circle cx="171" cy="283" r="3"/>
        <circle cx="69" cy="403" r="3"/>
        <circle cx="191" cy="403" r="3"/>
    </g>
</svg>
